<svg width="1921" height="781" viewBox="0 0 1921 781" fill="none" xmlns="http://www.w3.org/2000/svg">
<path d="M430.705 410.503L413.774 435.454L311 458.326H444.369L604.768 231.094L838.238 458.623L610.709 140.201L430.705 410.503ZM1402.31 409.909L1358.94 355.849V182.083L1259.14 125.943L1263.59 231.985L1087.15 0L845.961 455.059L848.041 458.326L1086.86 83.467L1376.76 458.326H1610.53L1402.31 409.909Z" fill="black"/>
<path d="M1023.59 294.067L1022.99 356.445L1103.79 357.039L1104.68 247.136C1071.41 247.73 1030.72 266.443 1023.59 294.067ZM1114.18 247.433L1113.29 357.039L1194.09 357.633L1194.68 295.255C1189.93 269.116 1152.2 250.7 1114.18 247.433ZM1022.7 397.436L1022.4 459.516L1103.19 460.407L1103.79 375.158L1022.99 374.267L1022.7 397.436ZM1112.7 460.407L1193.49 461.001L1193.79 399.218L1194.09 376.049L1113.29 375.158L1112.7 460.407ZM560.805 339.217L560.508 384.366L619.618 384.96L620.212 305.355C595.855 305.652 565.855 319.018 560.805 339.217ZM627.341 305.652L626.747 384.96L685.857 385.554L686.154 340.405C682.887 321.098 655.263 307.731 627.341 305.652ZM560.211 414.07L559.914 458.922L619.024 459.516L619.618 397.733L560.211 397.139V414.07ZM626.153 459.516L685.263 460.11L685.857 415.258V398.327L626.45 397.733L626.153 459.516ZM824.276 244.759L624.371 148.52L830.217 426.248L824.276 244.759ZM836.157 247.136L839.128 428.921L1069.63 10.6953L836.157 247.136Z" fill="#29ABE2"/>
<path d="M60.7783 720.344C50.9223 720.344 42.0903 718.744 34.2823 715.544C26.4743 712.344 20.2023 707.608 15.4663 701.336C10.8583 695.064 8.42626 687.512 8.17026 678.68H43.1143C43.6263 683.672 45.3543 687.512 48.2983 690.2C51.2423 692.76 55.0823 694.04 59.8183 694.04C64.6823 694.04 68.5223 692.952 71.3383 690.776C74.1543 688.472 75.5623 685.336 75.5623 681.368C75.5623 678.04 74.4103 675.288 72.1063 673.112C69.9303 670.936 67.1783 669.144 63.8503 667.736C60.6503 666.328 56.0423 664.728 50.0263 662.936C41.3223 660.248 34.2183 657.56 28.7143 654.872C23.2103 652.184 18.4743 648.216 14.5063 642.968C10.5383 637.72 8.55426 630.872 8.55426 622.424C8.55426 609.88 13.0983 600.088 22.1863 593.048C31.2743 585.88 43.1143 582.296 57.7063 582.296C72.5543 582.296 84.5223 585.88 93.6103 593.048C102.698 600.088 107.562 609.944 108.202 622.616H72.6823C72.4263 618.264 70.8263 614.872 67.8823 612.44C64.9383 609.88 61.1623 608.6 56.5543 608.6C52.5863 608.6 49.3863 609.688 46.9543 611.864C44.5223 613.912 43.3063 616.92 43.3063 620.888C43.3063 625.24 45.3543 628.632 49.4503 631.064C53.5463 633.496 59.9463 636.12 68.6503 638.936C77.3543 641.88 84.3943 644.696 89.7703 647.384C95.2743 650.072 100.01 653.976 103.978 659.096C107.946 664.216 109.93 670.808 109.93 678.872C109.93 686.552 107.946 693.528 103.978 699.8C100.138 706.072 94.5063 711.064 87.0823 714.776C79.6583 718.488 70.8903 720.344 60.7783 720.344ZM242.839 695.192H192.535L184.471 719H150.103L198.871 584.216H236.887L285.655 719H250.903L242.839 695.192ZM234.391 669.848L217.687 620.504L201.175 669.848H234.391ZM481.938 584.216V719H449.106V638.168L418.962 719H392.466L362.13 637.976V719H329.298V584.216H368.082L405.906 677.528L443.346 584.216H481.938ZM618.252 695.192H567.948L559.884 719H525.516L574.284 584.216H612.3L661.068 719H626.316L618.252 695.192ZM609.804 669.848L593.1 620.504L576.588 669.848H609.804Z" fill="#29ABE2"/>
<path d="M768.63 651.416C768.63 638.104 771.51 626.264 777.27 615.896C783.03 605.4 791.03 597.272 801.27 591.512C811.638 585.624 823.35 582.68 836.406 582.68C852.406 582.68 866.102 586.904 877.494 595.352C888.886 603.8 896.502 615.32 900.342 629.912H864.246C861.558 624.28 857.718 619.992 852.726 617.048C847.862 614.104 842.294 612.632 836.022 612.632C825.91 612.632 817.718 616.152 811.446 623.192C805.174 630.232 802.038 639.64 802.038 651.416C802.038 663.192 805.174 672.6 811.446 679.64C817.718 686.68 825.91 690.2 836.022 690.2C842.294 690.2 847.862 688.728 852.726 685.784C857.718 682.84 861.558 678.552 864.246 672.92H900.342C896.502 687.512 888.886 699.032 877.494 707.48C866.102 715.8 852.406 719.96 836.406 719.96C823.35 719.96 811.638 717.08 801.27 711.32C791.03 705.432 783.03 697.304 777.27 686.936C771.51 676.568 768.63 664.728 768.63 651.416ZM1012.99 720.344C1000.32 720.344 988.672 717.4 978.048 711.512C967.552 705.624 959.168 697.432 952.896 686.936C946.752 676.312 943.68 664.408 943.68 651.224C943.68 638.04 946.752 626.2 952.896 615.704C959.168 605.208 967.552 597.016 978.048 591.128C988.672 585.24 1000.32 582.296 1012.99 582.296C1025.66 582.296 1037.25 585.24 1047.74 591.128C1058.37 597.016 1066.69 605.208 1072.7 615.704C1078.85 626.2 1081.92 638.04 1081.92 651.224C1081.92 664.408 1078.85 676.312 1072.7 686.936C1066.56 697.432 1058.24 705.624 1047.74 711.512C1037.25 717.4 1025.66 720.344 1012.99 720.344ZM1012.99 690.392C1023.74 690.392 1032.32 686.808 1038.72 679.64C1045.25 672.472 1048.51 663 1048.51 651.224C1048.51 639.32 1045.25 629.848 1038.72 622.808C1032.32 615.64 1023.74 612.056 1012.99 612.056C1002.11 612.056 993.408 615.576 986.88 622.616C980.48 629.656 977.28 639.192 977.28 651.224C977.28 663.128 980.48 672.664 986.88 679.832C993.408 686.872 1002.11 690.392 1012.99 690.392ZM1161.24 584.216V664.856C1161.24 672.92 1163.23 679.128 1167.19 683.48C1171.16 687.832 1176.99 690.008 1184.67 690.008C1192.35 690.008 1198.23 687.832 1202.33 683.48C1206.43 679.128 1208.47 672.92 1208.47 664.856V584.216H1241.31V664.664C1241.31 676.696 1238.75 686.872 1233.63 695.192C1228.51 703.512 1221.59 709.784 1212.89 714.008C1204.31 718.232 1194.71 720.344 1184.09 720.344C1173.47 720.344 1163.93 718.296 1155.48 714.2C1147.16 709.976 1140.57 703.704 1135.71 695.384C1130.84 686.936 1128.41 676.696 1128.41 664.664V584.216H1161.24ZM1361.9 719L1333.86 668.12H1325.99V719H1293.16V584.216H1348.26C1358.89 584.216 1367.91 586.072 1375.34 589.784C1382.89 593.496 1388.52 598.616 1392.23 605.144C1395.94 611.544 1397.8 618.712 1397.8 626.648C1397.8 635.608 1395.24 643.608 1390.12 650.648C1385.13 657.688 1377.7 662.68 1367.85 665.624L1398.95 719H1361.9ZM1325.99 644.888H1346.34C1352.36 644.888 1356.84 643.416 1359.78 640.472C1362.86 637.528 1364.39 633.368 1364.39 627.992C1364.39 622.872 1362.86 618.84 1359.78 615.896C1356.84 612.952 1352.36 611.48 1346.34 611.48H1325.99V644.888ZM1544.17 584.216V610.52H1508.46V719H1475.63V610.52H1439.91V584.216H1544.17ZM1622.28 584.216V719H1589.45V584.216H1622.28ZM1707.7 610.52V637.784H1751.67V663.128H1707.7V692.696H1757.43V719H1674.87V584.216H1757.43V610.52H1707.7ZM1876.28 719L1848.25 668.12H1840.38V719H1807.55V584.216H1862.65C1873.28 584.216 1882.3 586.072 1889.72 589.784C1897.28 593.496 1902.91 598.616 1906.62 605.144C1910.33 611.544 1912.19 618.712 1912.19 626.648C1912.19 635.608 1909.63 643.608 1904.51 650.648C1899.52 657.688 1892.09 662.68 1882.24 665.624L1913.34 719H1876.28ZM1840.38 644.888H1860.73C1866.75 644.888 1871.23 643.416 1874.17 640.472C1877.24 637.528 1878.78 633.368 1878.78 627.992C1878.78 622.872 1877.24 618.84 1874.17 615.896C1871.23 612.952 1866.75 611.48 1860.73 611.48H1840.38V644.888Z" fill="black"/>
</svg>
